<?xml version="1.0" standalone="no"?>
<!DOCTYPE svg PUBLIC "-//W3C//DTD SVG 20010904//EN"
 "http://www.w3.org/TR/2001/REC-SVG-20010904/DTD/svg10.dtd">
<svg version="1.0" xmlns="http://www.w3.org/2000/svg"
 width="798.000000pt" height="280.000000pt" viewBox="0 0 798.000000 280.000000"
 preserveAspectRatio="xMidYMid meet">

<g transform="translate(0.000000,280.000000) scale(0.100000,-0.100000)"
fill="#000000" stroke="none">
<path d="M200 2692 c0 -11 13 -16 66 -27 42 -8 61 -30 73 -85 7 -28 11 -243
11 -563 0 -583 4 -555 -75 -577 -25 -7 -42 -16 -39 -21 8 -13 424 -12 424 1 0
6 -6 10 -12 10 -43 0 -91 24 -108 53 -18 29 -20 52 -20 270 0 183 3 237 13
237 6 1 35 3 62 6 28 2 55 1 61 -3 6 -5 50 -69 98 -143 158 -241 284 -397 313
-385 8 2 11 1 8 -5 -3 -5 7 -16 22 -24 57 -29 233 -49 233 -25 0 5 -4 7 -10 4
-5 -3 -10 -2 -10 4 0 5 -13 12 -29 16 -16 3 -46 23 -65 43 -68 70 -386 521
-386 545 1 7 35 28 76 47 147 66 216 161 215 293 -1 151 -99 259 -286 315 -61
18 -635 31 -635 14z m590 -74 c130 -59 191 -217 148 -385 -28 -111 -158 -183
-334 -183 l-81 0 -7 46 c-3 26 -6 161 -6 302 l0 255 113 -5 c91 -4 122 -10
167 -30z"/>
<path d="M7215 2588 c-8 -18 -105 -260 -215 -538 -218 -548 -225 -561 -307
-583 -24 -6 -43 -15 -43 -19 0 -4 74 -8 165 -8 91 0 165 2 165 5 0 3 -17 13
-37 22 -49 23 -64 54 -51 101 11 40 70 197 93 250 l15 32 203 0 204 0 18 -42
c42 -100 78 -201 89 -252 10 -43 -14 -72 -74 -87 -27 -7 -50 -16 -50 -21 0 -4
95 -8 210 -8 207 0 246 7 177 29 -19 7 -43 20 -54 31 -12 10 -24 16 -29 12 -4
-4 -4 -2 -1 4 4 6 -4 33 -17 60 -13 27 -44 105 -69 174 -93 252 -137 368 -187
495 -28 72 -72 185 -97 253 -41 109 -49 122 -70 122 -17 0 -27 -9 -38 -32z
m18 -264 c10 -27 32 -77 48 -112 16 -35 29 -68 29 -73 0 -6 16 -58 35 -116 19
-59 34 -107 33 -109 -4 -4 -182 -7 -274 -6 l-82 2 38 103 c21 56 58 157 84
224 25 67 46 127 46 133 0 28 27 -1 43 -46z"/>
<path d="M5136 2602 c-3 -5 -15 -35 -27 -68 -12 -32 -54 -142 -95 -244 -40
-102 -120 -307 -177 -456 -58 -149 -117 -290 -131 -312 -27 -43 -70 -72 -106
-72 -11 0 -20 -7 -20 -15 0 -13 26 -15 170 -15 137 0 170 3 170 14 0 8 -15 16
-37 19 -50 8 -83 33 -83 61 0 24 78 244 105 296 l16 30 199 0 c187 0 200 -1
210 -19 22 -43 100 -275 100 -301 0 -33 -25 -58 -68 -66 -19 -4 -32 -13 -32
-22 0 -12 10 -14 53 -8 28 3 121 6 205 6 119 0 153 3 150 13 -3 6 -13 13 -24
15 -81 13 -96 37 -199 307 -42 110 -123 319 -180 465 -57 146 -114 291 -125
323 -18 47 -25 57 -45 57 -13 0 -26 -4 -29 -8z m-1 -239 c29 -75 165 -460 165
-470 0 -2 -81 -3 -180 -3 -99 0 -180 3 -180 6 0 16 175 484 181 484 4 0 10 -8
14 -17z"/>
<path d="M1950 2543 c-12 -32 -37 -96 -55 -143 -19 -47 -95 -244 -170 -439
-75 -195 -149 -383 -166 -417 -29 -61 -71 -104 -102 -104 -23 0 -47 -11 -47
-21 0 -5 81 -9 180 -9 112 0 180 4 180 10 0 5 -19 13 -42 16 -24 4 -52 17 -66
31 -31 31 -28 51 35 219 l48 129 213 3 213 2 24 -53 c39 -89 85 -227 85 -256
0 -30 -36 -71 -62 -71 -24 0 -48 -11 -48 -21 0 -5 93 -9 210 -9 212 0 250 7
169 31 -22 7 -51 25 -63 40 -13 15 -54 105 -91 201 -37 95 -101 254 -142 353
-42 99 -110 266 -153 370 -70 170 -81 190 -103 193 -22 3 -28 -3 -47 -55z
m131 -485 c12 -35 30 -82 40 -106 38 -87 44 -84 -162 -78 -100 2 -183 6 -185
8 -2 2 18 62 45 133 26 72 62 173 81 225 52 151 45 151 105 7 29 -69 63 -154
76 -189z"/>
<path d="M5604 2588 c-2 -3 19 -14 48 -24 71 -23 136 -92 218 -227 36 -60 72
-121 81 -135 9 -15 33 -54 52 -87 19 -33 43 -68 51 -77 9 -10 16 -20 16 -23 0
-3 7 -22 16 -43 13 -31 15 -71 12 -242 -2 -113 -8 -213 -12 -223 -12 -25 -59
-47 -101 -47 -24 0 -35 -4 -35 -15 0 -13 30 -15 211 -15 164 0 210 3 207 13
-3 6 -19 13 -36 15 -19 2 -39 13 -52 29 -19 24 -20 40 -20 250 l0 225 41 69
c95 164 283 457 312 487 36 38 77 62 106 62 11 0 23 5 26 10 4 7 -52 10 -159
10 -104 0 -166 -4 -166 -10 0 -5 10 -10 23 -10 77 0 76 -74 -3 -212 -87 -154
-204 -338 -214 -335 -5 2 -22 27 -38 57 -17 30 -68 118 -113 195 -115 193
-128 221 -121 248 5 23 42 47 71 47 8 0 15 3 15 8 0 9 -430 10 -436 0z"/>
<path d="M3567 2581 c-12 -5 -4 -11 33 -24 82 -29 80 -15 80 -484 l-1 -408
-35 40 c-19 22 -96 117 -172 211 -75 94 -187 231 -247 305 -61 74 -151 185
-200 246 l-90 113 -127 0 c-120 0 -164 -10 -99 -23 43 -9 81 -47 91 -92 12
-52 12 -888 0 -940 -10 -45 -50 -85 -84 -85 -13 0 -26 -7 -30 -15 -5 -13 17
-15 155 -15 121 0 160 3 157 12 -3 7 -18 16 -34 20 -17 4 -41 19 -55 34 l-24
26 -3 446 -3 447 32 -30 c17 -17 42 -47 55 -68 14 -21 32 -45 42 -55 9 -9 28
-33 42 -52 34 -48 261 -331 325 -405 29 -33 98 -116 154 -185 155 -190 145
-180 185 -180 l36 0 0 533 c0 511 1 533 20 564 12 20 31 35 51 41 18 4 35 14
37 20 3 10 -28 12 -135 11 -76 -1 -146 -4 -156 -8z"/>
<path d="M4120 2582 c0 -5 17 -14 39 -20 70 -22 66 17 63 -631 -2 -340 -7
-605 -13 -631 -6 -24 -19 -59 -29 -76 -23 -36 -82 -80 -122 -89 -32 -8 -38
-35 -8 -35 40 0 146 58 206 113 76 70 111 142 124 259 6 46 10 297 10 559 0
464 1 477 20 502 12 15 36 29 56 33 84 16 32 24 -150 24 -108 0 -196 -4 -196
-8z"/>
<path d="M4120 739 c-57 -77 -84 -147 -88 -226 -2 -40 -6 -73 -8 -73 -1 0 -16
12 -31 26 -15 15 -51 37 -79 50 -51 24 -153 48 -162 39 -10 -10 20 -142 42
-191 31 -66 103 -144 163 -176 200 -107 465 -25 555 171 26 56 48 136 48 174
0 33 -20 35 -100 11 -53 -16 -160 -79 -160 -95 0 -5 -3 -9 -7 -9 -5 0 -9 30
-10 67 -2 55 -9 81 -38 138 -19 38 -48 85 -64 104 l-28 34 -33 -44z m64 -42
c48 -63 68 -122 67 -205 0 -42 -6 -95 -14 -118 -19 -52 -64 -141 -76 -148 -10
-7 -62 90 -86 159 -21 62 -21 157 0 214 17 48 66 131 77 131 4 0 18 -15 32
-33z m-333 -187 c104 -32 152 -77 231 -215 l68 -120 -38 -3 c-105 -8 -256 104
-301 222 -21 57 -38 136 -28 136 3 0 33 -9 68 -20z m675 -19 c-23 -146 -116
-259 -250 -304 -51 -18 -110 -23 -104 -9 42 93 110 205 146 244 49 52 82 73
147 94 65 21 68 19 61 -25z"/>
<path d="M6127 486 c-854 -7 -1296 -14 -1295 -21 2 -7 315 -9 923 -6 1347 6
2000 14 1998 26 -4 13 -102 13 -1626 1z"/>
<path d="M1930 449 c-393 -3 -872 -7 -1063 -8 -259 -1 -348 -4 -345 -13 3 -8
203 -11 793 -9 434 1 792 4 795 6 4 2 265 5 581 7 651 3 762 5 754 19 -7 10
-334 9 -1515 -2z"/>
</g>
</svg>
