<?xml version="1.0" standalone="no"?>
<!DOCTYPE svg PUBLIC "-//W3C//DTD SVG 20010904//EN"
 "http://www.w3.org/TR/2001/REC-SVG-20010904/DTD/svg10.dtd">
<svg version="1.0" xmlns="http://www.w3.org/2000/svg"
 width="798.000000pt" height="280.000000pt" viewBox="0 0 798.000000 280.000000"
 preserveAspectRatio="xMidYMid meet">

<g transform="translate(0.000000,280.000000) scale(0.100000,-0.100000)"
fill="#000000" stroke="none">
<path d="M200 2685 c0 -9 9 -15 25 -15 14 0 41 -6 59 -14 59 -25 60 -31 60
-627 1 -607 7 -565 -80 -589 -24 -7 -44 -19 -44 -26 0 -11 40 -14 220 -14 188
0 220 2 220 15 0 8 -12 17 -27 21 -108 23 -107 22 -111 312 l-4 243 72 -3 72
-3 89 -138 c164 -255 266 -375 354 -416 64 -30 235 -44 235 -19 0 10 -13 17
-34 21 -58 9 -93 44 -220 220 -142 196 -255 359 -256 368 0 4 37 24 83 46 148
72 211 159 211 293 0 94 -25 149 -101 221 -108 102 -185 119 -550 119 -236 0
-273 -2 -273 -15z m582 -67 c110 -47 176 -167 165 -303 -11 -142 -76 -214
-229 -250 -35 -8 -93 -15 -130 -15 l-68 0 0 73 c0 39 -3 172 -7 293 -7 258
-21 234 126 227 66 -3 109 -10 143 -25z"/>
<path d="M7216 2605 c-3 -13 -101 -260 -216 -547 -183 -457 -214 -527 -244
-555 -26 -24 -45 -33 -71 -33 -29 0 -35 -4 -35 -22 0 -21 2 -21 113 -15 61 4
136 7 165 7 39 0 52 4 52 15 0 10 -10 15 -28 15 -36 0 -62 28 -62 66 1 16 25
92 54 169 l53 140 202 0 202 0 44 -112 c88 -226 87 -242 -27 -267 -16 -4 -28
-11 -28 -16 0 -6 81 -10 215 -10 184 0 215 2 215 15 0 10 -10 15 -28 15 -40 0
-69 24 -99 83 -14 29 -90 221 -168 427 -260 687 -245 650 -276 650 -20 0 -28
-6 -33 -25z m79 -465 c40 -107 77 -203 80 -212 7 -17 -5 -18 -169 -18 -97 0
-176 3 -176 7 0 4 39 111 87 237 73 192 88 225 95 205 5 -13 42 -112 83 -219z"/>
<path d="M5112 2553 c-11 -32 -62 -164 -112 -293 -134 -339 -198 -505 -227
-585 -42 -117 -80 -180 -122 -203 -21 -12 -48 -22 -60 -22 -12 0 -21 -6 -21
-15 0 -13 26 -15 175 -15 149 0 175 2 175 15 0 8 -7 15 -15 15 -32 0 -93 32
-98 52 -6 21 22 110 79 256 l28 72 204 -2 205 -3 28 -75 c16 -41 41 -110 56
-153 32 -95 25 -120 -37 -138 -23 -7 -40 -18 -40 -27 0 -13 25 -14 188 -9 103
4 195 7 205 7 9 0 17 7 17 15 0 10 -10 15 -29 15 -40 0 -82 38 -109 97 -12 26
-78 194 -146 373 -270 704 -258 675 -293 678 -29 3 -32 0 -51 -55z m25 -215
c6 -18 43 -120 82 -226 39 -106 71 -197 71 -202 0 -5 -78 -10 -176 -12 -152
-3 -174 -1 -170 12 23 74 172 460 176 460 4 0 11 -15 17 -32z"/>
<path d="M6578 2603 c-150 -3 -192 -12 -131 -28 67 -16 69 -53 10 -168 -42
-81 -199 -339 -222 -365 -9 -10 -21 5 -55 70 -24 46 -61 112 -83 148 -114 184
-138 226 -144 248 -7 31 22 62 59 62 18 0 28 5 28 15 0 13 -31 15 -220 15
-189 0 -220 -2 -220 -15 0 -8 9 -15 20 -15 32 0 95 -36 135 -77 20 -21 68 -92
107 -158 39 -66 99 -165 133 -220 114 -184 108 -159 103 -393 l-3 -204 -33
-29 c-24 -21 -42 -29 -71 -29 -25 0 -41 -5 -45 -15 -5 -13 23 -15 215 -15 172
0 220 3 217 13 -3 6 -13 13 -24 15 -92 14 -94 21 -94 285 l0 214 108 179 c189
312 238 382 290 415 25 16 56 29 69 29 14 0 23 6 23 15 0 8 -3 14 -7 13 -5 -1
-79 -4 -165 -5z"/>
<path d="M1953 2568 c-13 -37 -132 -349 -217 -568 -31 -80 -79 -205 -107 -279
-83 -221 -111 -263 -184 -279 -62 -12 -53 -37 13 -37 267 2 312 5 312 20 0 11
-11 15 -39 15 -53 0 -85 27 -85 71 0 19 22 94 50 166 l49 133 165 1 c91 0 184
1 208 3 24 1 46 -3 51 -9 15 -21 111 -275 111 -295 0 -34 -44 -70 -85 -70 -24
0 -35 -4 -35 -15 0 -13 31 -15 215 -15 184 0 215 2 215 15 0 8 -9 15 -20 15
-33 0 -70 22 -89 54 -11 17 -64 144 -119 281 -55 138 -142 351 -194 475 -52
124 -106 253 -119 288 -22 57 -26 62 -55 62 -26 0 -32 -5 -41 -32z m91 -435
c49 -126 91 -234 93 -240 4 -10 -36 -13 -180 -13 l-185 0 48 128 c25 70 64
178 86 240 21 61 41 112 44 112 3 0 45 -102 94 -227z"/>
<path d="M2765 2580 c-91 -5 -97 -6 -70 -17 117 -48 110 -13 110 -568 0 -537
3 -520 -77 -545 -27 -8 -48 -21 -48 -28 0 -10 36 -12 163 -10 162 3 195 12
121 33 -20 5 -46 23 -58 38 -20 28 -21 39 -24 469 l-3 440 187 -233 c103 -129
284 -350 402 -491 203 -244 216 -258 248 -258 l34 0 1 528 c1 290 4 536 7 547
14 40 29 56 67 70 80 27 53 35 -115 35 -119 0 -161 -3 -158 -12 2 -6 21 -16
43 -22 21 -6 47 -23 59 -39 20 -28 21 -39 23 -440 3 -408 3 -412 -16 -387 -11
14 -87 108 -170 210 -83 102 -238 294 -346 427 -107 133 -201 245 -207 249
-15 10 -47 10 -173 4z"/>
<path d="M4110 2581 c0 -4 20 -14 45 -21 25 -7 50 -21 56 -31 16 -31 7 -1204
-10 -1254 -18 -55 -86 -120 -139 -134 -32 -9 -42 -17 -42 -32 0 -15 5 -19 18
-15 9 3 31 8 47 12 54 12 103 43 170 106 132 123 135 136 135 778 0 382 3 511
13 530 8 17 28 30 60 40 26 8 47 18 47 23 0 4 -90 7 -200 7 -110 0 -200 -4
-200 -9z"/>
<path d="M4122 742 c-61 -77 -108 -212 -96 -276 l4 -26 -44 34 c-51 39 -129
71 -199 81 l-48 7 6 -28 c23 -101 37 -149 56 -186 34 -67 112 -142 182 -174
56 -26 72 -29 167 -29 128 1 193 23 270 92 78 70 121 156 139 279 l7 50 -55
-8 c-62 -10 -135 -44 -193 -90 l-39 -30 6 24 c16 63 -35 207 -98 282 l-33 39
-32 -41z m70 -58 c82 -118 79 -273 -8 -421 l-27 -47 -46 90 c-44 87 -45 91
-46 184 0 92 1 98 39 168 21 40 44 71 50 69 6 -2 23 -21 38 -43z m-339 -175
c83 -28 139 -71 186 -144 38 -60 101 -178 101 -191 0 -14 -105 8 -150 31 -87
44 -147 111 -182 200 -18 46 -33 125 -24 125 4 0 35 -9 69 -21z m677 9 c0 -31
-30 -120 -56 -168 -50 -92 -152 -162 -259 -176 l-48 -7 58 109 c78 150 135
207 240 240 52 16 65 17 65 2z"/>
<path d="M6555 489 c-412 -3 -972 -7 -1242 -8 -451 -1 -493 -2 -493 -17 0 -16
59 -16 768 -10 2121 18 2172 18 2172 32 0 12 -42 14 -227 12 -126 -1 -565 -5
-978 -9z"/>
<path d="M1715 449 c-424 -3 -866 -7 -982 -8 -184 -1 -213 -3 -213 -16 0 -14
87 -15 818 -9 1879 15 2105 18 2110 32 4 13 -307 14 -1733 1z"/>
</g>
</svg>
