<?xml version="1.0" standalone="no"?>
<!DOCTYPE svg PUBLIC "-//W3C//DTD SVG 20010904//EN"
 "http://www.w3.org/TR/2001/REC-SVG-20010904/DTD/svg10.dtd">
<svg version="1.0" xmlns="http://www.w3.org/2000/svg"
 width="100.000000pt" height="87.000000pt" viewBox="0 0 100.000000 87.000000"
 preserveAspectRatio="xMidYMid meet">

<g transform="translate(0.000000,87.000000) scale(0.100000,-0.100000)"
fill="#000000" stroke="none">
<path d="M472 732 c-61 -77 -114 -230 -97 -283 6 -17 -1 -14 -39 15 -51 39
-129 71 -199 81 l-48 7 6 -28 c23 -101 37 -149 56 -186 34 -67 112 -142 182
-174 56 -26 72 -29 167 -29 129 1 199 25 273 94 77 72 118 156 136 277 l7 50
-55 -8 c-61 -10 -135 -44 -191 -88 -36 -29 -37 -29 -33 -6 13 64 -39 207 -100
280 l-33 39 -32 -41z m70 -58 c82 -119 79 -272 -9 -423 l-26 -45 -46 90 c-44
87 -45 91 -46 184 0 92 1 98 39 168 21 40 44 71 50 69 6 -2 23 -21 38 -43z
m-339 -175 c69 -23 139 -72 172 -122 33 -48 115 -198 115 -210 0 -17 -95 0
-148 27 -89 45 -149 111 -184 201 -18 46 -33 125 -24 125 4 0 35 -9 69 -21z
m677 9 c0 -31 -30 -120 -56 -168 -50 -92 -152 -162 -259 -176 l-48 -7 58 109
c78 150 135 207 240 240 52 16 65 17 65 2z"/>
</g>
</svg>
